<?xml version="1.0" encoding="utf-8"?>
<!-- Generator: Adobe Illustrator 23.0.3, SVG Export Plug-In . SVG Version: 6.00 Build 0)  -->
<svg version="1.1" id="Layer_1" xmlns="http://www.w3.org/2000/svg" xmlns:xlink="http://www.w3.org/1999/xlink" x="0px" y="0px"
	 viewBox="0 0 2000 2000" style="enable-background:new 0 0 2000 2000;" xml:space="preserve">
<style type="text/css">
	.st0{opacity:0.2;fill:#F26522;}
	.st1{opacity:0.2;fill:#2E3192;}
	.st2{opacity:0.2;fill:#ED1C24;}
	.st3{fill:none;}
	.st4{font-family:'ArialMT';}
	.st5{font-size:21.6px;}
	.st6{fill:none;stroke:#6D6E71;stroke-width:2;stroke-miterlimit:10;}
	.st7{fill:#6D6E71;}
	.st8{fill:#BE1E2D;}
	.st9{font-family:'Arial-BoldMT';}
	.st10{font-size:24px;}
	.st11{fill:#262262;}
	.st12{fill:none;stroke:#000000;stroke-width:2;stroke-miterlimit:10;}
	.st13{fill:#F26522;}
</style>
<rect x="167.22" y="1380.22" class="st0" width="922.7" height="302.21"/>
<polygon class="st1" points="1815.98,777.22 1291.99,777.22 1291.99,881.52 891.84,881.52 891.84,1202.26 1415.83,1202.26 
	1415.83,1202.05 1815.98,1202.05 "/>
<polygon class="st2" points="555.01,1167.65 555.01,841.63 167.22,841.63 167.22,1326.75 544.92,1326.75 544.92,1326.84 
	874.67,1326.84 874.67,1167.65 "/>
<rect x="155.69" y="709.08" class="st3" width="164.89" height="18.9"/>
<text transform="matrix(1 0 0 1 166.0748 724.55)" class="st4 st5">nanopore.fastq</text>
<rect x="406.38" y="709.08" class="st3" width="56.13" height="18.9"/>
<text transform="matrix(1 0 0 1 414.0433 724.55)" class="st4 st5">Flye</text>
<g>
	<g>
		<line class="st6" x1="325.95" y1="718.53" x2="372.24" y2="718.53"/>
		<g>
			<polygon class="st7" points="370.05,726.01 383,718.53 370.05,711.06 			"/>
		</g>
	</g>
</g>
<rect x="566.32" y="709.08" class="st3" width="150.74" height="18.9"/>
<text transform="matrix(1 0 0 1 569.658 724.55)" class="st4 st5">assembly.fasta</text>
<g>
	<g>
		<line class="st6" x1="485.89" y1="718.53" x2="532.17" y2="718.53"/>
		<g>
			<polygon class="st7" points="529.99,726.01 542.94,718.53 529.99,711.06 			"/>
		</g>
	</g>
</g>
<g>
	<g>
		<line class="st6" x1="930.13" y1="709.08" x2="970.22" y2="685.94"/>
		<g>
			<polygon class="st7" points="972.06,693.51 979.54,680.56 964.58,680.56 			"/>
		</g>
	</g>
</g>
<g>
	<g>
		<line class="st6" x1="930.13" y1="727.98" x2="970.22" y2="751.13"/>
		<g>
			<polygon class="st7" points="964.58,756.51 979.54,756.51 972.06,743.55 			"/>
		</g>
	</g>
</g>
<rect x="988.13" y="667.41" class="st3" width="165.7" height="18.9"/>
<text transform="matrix(1 0 0 1 988.1338 682.8759)" class="st4 st5">cir_contigs.fasta</text>
<rect x="988.97" y="750.56" class="st3" width="164.02" height="18.9"/>
<text transform="matrix(1 0 0 1 988.9716 766.0264)" class="st4 st5">lin_contigs.fasta</text>
<rect x="820.86" y="709.08" class="st3" width="93.52" height="18.9"/>
<text transform="matrix(1 0 0 1 825.6078 724.55)" class="st4 st5">sorter.py</text>
<g>
	<g>
		<line class="st6" x1="740.44" y1="718.53" x2="786.72" y2="718.53"/>
		<g>
			<polygon class="st7" points="784.53,726.01 797.48,718.53 784.53,711.06 			"/>
		</g>
	</g>
</g>
<g>
	<g>
		<polyline class="st6" points="532.17,769.46 434.45,769.46 434.45,741.95 		"/>
		<g>
			<polygon class="st7" points="529.99,761.98 542.94,769.46 529.99,776.94 			"/>
		</g>
	</g>
</g>
<rect x="566.32" y="760.01" class="st3" width="174.12" height="18.9"/>
<text transform="matrix(1 0 0 1 569.9407 775.4769)" class="st4 st5">assembly_info.txt</text>
<g>
	<g>
		<polyline class="st6" points="747.43,767.22 867.62,767.22 867.62,750.47 		"/>
		<g>
			<polygon class="st7" points="875.1,752.66 867.62,739.71 860.14,752.66 			"/>
		</g>
	</g>
</g>
<rect x="140.9" y="942.67" class="st3" width="165.7" height="18.9"/>
<text transform="matrix(1 0 0 1 185.3281 958.1359)" class="st4 st5">Medaka</text>
<rect x="140.9" y="1057.25" class="st3" width="165.7" height="18.9"/>
<text transform="matrix(1 0 0 1 192.5317 1072.7203)" class="st4 st5">Racon</text>
<g>
	<g>
		<line class="st6" x1="223.75" y1="980.89" x2="223.75" y2="1027.17"/>
		<g>
			<polygon class="st7" points="216.27,1024.98 223.75,1037.94 231.23,1024.98 			"/>
		</g>
	</g>
</g>
<rect x="140.9" y="1169.11" class="st3" width="165.7" height="18.9"/>
<text transform="matrix(1 0 0 1 199.7354 1184.573)" class="st4 st5">Pilon</text>
<g>
	<g>
		<line class="st6" x1="223.75" y1="1092.74" x2="223.75" y2="1139.03"/>
		<g>
			<polygon class="st7" points="216.27,1136.84 223.75,1149.79 231.23,1136.84 			"/>
		</g>
	</g>
</g>
<rect x="331.77" y="1112.82" class="st3" width="165.7" height="18.9"/>
<text transform="matrix(1 0 0 1 351.5922 1128.2808)" class="st4 st5">illumina.fastq</text>
<g>
	<g>
		<polyline class="st6" points="285.39,1066.7 379.62,1066.7 379.62,1092.74 		"/>
		<g>
			<polygon class="st7" points="287.58,1074.18 274.62,1066.7 287.58,1059.23 			"/>
		</g>
	</g>
</g>
<g>
	<g>
		<polyline class="st6" points="285.39,1178.56 379.62,1178.56 379.62,1149.79 		"/>
		<g>
			<polygon class="st7" points="287.58,1186.04 274.62,1178.56 287.58,1171.08 			"/>
		</g>
	</g>
</g>
<g>
	<g>
		<line class="st6" x1="223.75" y1="1207.33" x2="223.75" y2="1253.61"/>
		<g>
			<polygon class="st7" points="216.27,1251.42 223.75,1264.37 231.23,1251.42 			"/>
		</g>
	</g>
</g>
<rect x="140.9" y="1283.69" class="st3" width="165.7" height="18.9"/>
<text transform="matrix(1 0 0 1 174.5176 1299.1575)" class="st4 st5">pilon.fasta</text>
<rect x="331.77" y="942.67" class="st3" width="165.7" height="18.9"/>
<text transform="matrix(1 0 0 1 342.5643 958.1359)" class="st4 st5">nanopore.fastq</text>
<g>
	<g>
		<line class="st6" x1="325.95" y1="952.12" x2="285.39" y2="952.12"/>
		<g>
			<polygon class="st7" points="287.58,944.64 274.62,952.12 287.58,959.6 			"/>
		</g>
	</g>
</g>
<rect x="701.74" y="1111.82" class="st3" width="110.12" height="18.9"/>
<text transform="matrix(1 0 0 1 706.376 1127.2803)" class="st4 st5">nucmer.py</text>
<g>
	<g>
		<polyline class="st6" points="1070.98,784.78 1070.98,827.21 223.75,827.21 223.75,914.04 		"/>
		<g>
			<polygon class="st7" points="216.27,911.85 223.75,924.8 231.23,911.85 			"/>
		</g>
	</g>
</g>
<g>
	<g>
		<polyline class="st6" points="673.08,1121.39 587.22,1121.39 587.22,1293.26 291.97,1293.26 		"/>
		<g>
			<polygon class="st7" points="670.89,1113.91 683.84,1121.39 670.89,1128.87 			"/>
		</g>
	</g>
</g>
<g>
	<g>
		<polyline class="st6" points="1164.83,675.8 1194.7,675.8 1194.7,865.53 756.8,865.53 756.8,1084.98 		"/>
		<g>
			<polygon class="st7" points="749.32,1082.79 756.8,1095.74 764.28,1082.79 			"/>
		</g>
	</g>
</g>
<rect x="634.42" y="1283.69" class="st3" width="244.76" height="18.9"/>
<text transform="matrix(1 0 0 1 649.9238 1299.157)" class="st4 st5">polished_contigs.fasta</text>
<g>
	<g>
		<line class="st6" x1="756.8" y1="1152.22" x2="756.8" y2="1253.61"/>
		<g>
			<polygon class="st7" points="749.32,1251.42 756.8,1264.37 764.28,1251.42 			"/>
		</g>
	</g>
</g>
<g>
	<g>
		<line class="st6" x1="864.97" y1="1121.27" x2="824.4" y2="1121.27"/>
		<g>
			<polygon class="st7" points="862.78,1113.79 875.73,1121.27 862.78,1128.74 			"/>
		</g>
	</g>
</g>
<rect x="895.42" y="1111.82" class="st3" width="210.77" height="18.9"/>
<text transform="matrix(1 0 0 1 901.1527 1127.2809)" class="st4 st5">cir_rep_contigs.fasta</text>
<g>
	<g>
		<line class="st6" x1="1000.8" y1="1095.23" x2="1000.8" y2="1048.95"/>
		<g>
			<polygon class="st7" points="1008.28,1051.13 1000.8,1038.18 993.33,1051.13 			"/>
		</g>
	</g>
</g>
<rect x="962.51" y="1002.69" class="st3" width="76.59" height="18.9"/>
<text transform="matrix(1 0 0 1 967.1918 1018.1594)" class="st4 st5">split.sh</text>
<g>
	<g>
		<polyline class="st6" points="1095.42,952.12 1000,952.12 1000,986.11 		"/>
		<g>
			<polygon class="st7" points="1093.24,944.64 1106.19,952.12 1093.24,959.6 			"/>
		</g>
	</g>
</g>
<rect x="1345.33" y="1057.25" class="st3" width="165.7" height="18.9"/>
<text transform="matrix(1 0 0 1 1365.1548 1072.7203)" class="st4 st5">illumina.fastq</text>
<rect x="1120.75" y="942.67" class="st3" width="165.7" height="18.9"/>
<text transform="matrix(1 0 0 1 1136.9561 958.1359)" class="st4 st5">contig_x.fasta</text>
<g>
	<g>
		<line class="st6" x1="1293.65" y1="942.67" x2="1333.73" y2="919.53"/>
		<g>
			<polygon class="st7" points="1335.57,927.1 1343.05,914.15 1328.09,914.15 			"/>
		</g>
	</g>
</g>
<g>
	<g>
		<line class="st6" x1="1293.65" y1="961.57" x2="1333.73" y2="984.71"/>
		<g>
			<polygon class="st7" points="1328.09,990.1 1343.05,990.09 1335.57,977.14 			"/>
		</g>
	</g>
</g>
<rect x="1351.17" y="902.95" class="st3" width="154.02" height="18.9"/>
<text transform="matrix(1 0 0 1 1355.5261 918.4191)" class="st4 st5">Align nanopore</text>
<rect x="1351.17" y="987.55" class="st3" width="154.02" height="18.9"/>
<text transform="matrix(1 0 0 1 1363.9529 1003.0156)" class="st4 st5">Align Illumina</text>
<rect x="1345.33" y="832.18" class="st3" width="165.7" height="18.9"/>
<text transform="matrix(1 0 0 1 1356.127 847.6497)" class="st4 st5">nanopore.fastq</text>
<g>
	<g>
		<line class="st6" x1="1428.18" y1="1051.81" x2="1428.18" y2="1028.54"/>
		<g>
			<polygon class="st7" points="1435.66,1030.73 1428.18,1017.78 1420.7,1030.73 			"/>
		</g>
	</g>
</g>
<g>
	<g>
		<line class="st6" x1="1428.18" y1="857.06" x2="1428.18" y2="882.53"/>
		<g>
			<polygon class="st7" points="1420.7,880.34 1428.18,893.29 1435.66,880.34 			"/>
		</g>
	</g>
</g>
<g>
	<g>
		<line class="st6" x1="1517.48" y1="997" x2="1563.76" y2="997"/>
		<g>
			<polygon class="st7" points="1561.57,1004.48 1574.52,997 1561.57,989.52 			"/>
		</g>
	</g>
</g>
<g>
	<g>
		<line class="st6" x1="1517.48" y1="912.4" x2="1563.76" y2="912.4"/>
		<g>
			<polygon class="st7" points="1561.57,919.88 1574.52,912.4 1561.57,904.92 			"/>
		</g>
	</g>
</g>
<rect x="1597.7" y="902.95" class="st3" width="175.59" height="18.9"/>
<text transform="matrix(1 0 0 1 1597.6992 918.4191)" class="st4 st5">contig_x_np.fastq</text>
<rect x="1597.7" y="987.55" class="st3" width="175.59" height="18.9"/>
<text transform="matrix(1 0 0 1 1597.6992 1003.0155)" class="st4 st5">contig_x_ill.fastq</text>
<rect x="1630.63" y="1151.82" class="st3" width="109.74" height="18.9"/>
<text transform="matrix(1 0 0 1 1641.0885 1167.2808)" class="st4 st5">Unicycler</text>
<g>
	<g>
		<line class="st6" x1="1685.5" y1="1023.36" x2="1685.5" y2="1124.14"/>
		<g>
			<polygon class="st7" points="1678.02,1121.95 1685.5,1134.91 1692.98,1121.95 			"/>
		</g>
	</g>
</g>
<g>
	<g>
		<polyline class="st6" points="1761.81,1161.27 1803.73,1161.27 1803.73,912.4 1780.32,912.4 		"/>
		<g>
			<polygon class="st7" points="1764,1168.74 1751.05,1161.27 1764,1153.79 			"/>
		</g>
	</g>
</g>
<rect x="1316.4" y="1151.82" class="st3" width="223.57" height="18.9"/>
<text transform="matrix(1 0 0 1 1318.9279 1167.2808)" class="st4 st5">unicycler_contigs.fasta</text>
<g>
	<g>
		<line class="st6" x1="1622.85" y1="1161.27" x2="1560.61" y2="1161.27"/>
		<g>
			<polygon class="st7" points="1562.8,1153.79 1549.85,1161.27 1562.8,1168.74 			"/>
		</g>
	</g>
</g>
<rect x="1376.05" y="1283.81" class="st3" width="104.27" height="18.9"/>
<text transform="matrix(1 0 0 1 1384.9617 1299.28)" class="st4 st5">Combine</text>
<g>
	<g>
		<line class="st6" x1="1428.18" y1="1183.56" x2="1428.18" y2="1260.21"/>
		<g>
			<polygon class="st7" points="1420.7,1258.02 1428.18,1270.97 1435.66,1258.02 			"/>
		</g>
	</g>
</g>
<g>
	<g>
		<line class="st6" x1="884.31" y1="1293.14" x2="1359.21" y2="1293.14"/>
		<g>
			<polygon class="st7" points="1357.02,1300.62 1369.98,1293.14 1357.02,1285.66 			"/>
		</g>
	</g>
</g>
<g>
	<g>
		<line class="st6" x1="1483.49" y1="1293.14" x2="1617.98" y2="1293.14"/>
		<g>
			<polygon class="st7" points="1615.79,1300.62 1628.74,1293.14 1615.79,1285.66 			"/>
		</g>
	</g>
</g>
<rect x="1634.74" y="1284.37" class="st3" width="104.27" height="18.9"/>
<text transform="matrix(1 0 0 1 1640.651 1299.8367)" class="st4 st5">final.fasta</text>
<rect x="268.78" y="851.17" class="st3" width="171.4" height="24.59"/>
<text transform="matrix(1 0 0 1 270.4602 868.3529)" class="st8 st9 st10">Chromosomes</text>
<rect x="1478.1" y="786.49" class="st3" width="135.8" height="24.59"/>
<text transform="matrix(1 0 0 1 1500.6486 803.6691)" class="st11 st9 st10">Circular</text>
<rect x="181.61" y="935.44" class="st12" width="85.46" height="29.66"/>
<rect x="181.61" y="1050.51" class="st12" width="85.46" height="29.66"/>
<rect x="181.02" y="1162.73" class="st12" width="85.46" height="29.66"/>
<rect x="391.71" y="703.71" class="st12" width="85.46" height="29.66"/>
<rect x="817.89" y="703.71" class="st12" width="98.16" height="29.66"/>
<rect x="701.72" y="1106.56" class="st12" width="110.17" height="29.66"/>
<rect x="952.91" y="997.06" class="st12" width="94.19" height="29.66"/>
<rect x="1351.17" y="897.57" class="st12" width="154.02" height="29.66"/>
<rect x="1351.17" y="982.17" class="st12" width="154.02" height="29.66"/>
<rect x="1633.74" y="1145.44" class="st12" width="104.27" height="29.66"/>
<rect x="1375.11" y="1278.31" class="st12" width="104.27" height="29.66"/>
<rect x="169.47" y="1464.22" class="st3" width="109.74" height="18.9"/>
<text transform="matrix(1 0 0 1 182.3281 1479.688)" class="st4 st5">BLASTN</text>
<rect x="172.59" y="1457.84" class="st12" width="104.27" height="29.66"/>
<g>
	<g>
		<polyline class="st6" points="1685.5,1315.97 1685.5,1354.91 223.75,1354.91 223.75,1433.7 		"/>
		<g>
			<polygon class="st7" points="216.27,1431.51 223.75,1444.46 231.23,1431.51 			"/>
		</g>
	</g>
</g>
<rect x="338.1" y="1463.22" class="st3" width="165.7" height="18.9"/>
<text transform="matrix(1 0 0 1 356.708 1478.688)" class="st4 st5">eng_sig.fasta</text>
<g>
	<g>
		<line class="st6" x1="337.29" y1="1472.67" x2="296.72" y2="1472.67"/>
		<g>
			<polygon class="st7" points="298.91,1465.19 285.96,1472.67 298.91,1480.15 			"/>
		</g>
	</g>
</g>
<rect x="695.41" y="1444.7" class="st3" width="122.76" height="18.9"/>
<text transform="matrix(1 0 0 1 699.7737 1460.1606)" class="st4 st5">chromoMap</text>
<rect x="697.53" y="1438.32" class="st12" width="119.65" height="29.66"/>
<rect x="695.41" y="1528.65" class="st3" width="122.76" height="18.9"/>
<text transform="matrix(1 0 0 1 730.9925 1544.1154)" class="st4 st5">AliTV</text>
<rect x="697.53" y="1522.27" class="st12" width="119.65" height="29.66"/>
<g>
	<g>
		<polyline class="st6" points="326.52,1558.14 222.12,1558.14 222.12,1500.88 		"/>
		<g>
			<polygon class="st7" points="324.33,1550.66 337.29,1558.14 324.33,1565.62 			"/>
		</g>
	</g>
</g>
<rect x="331.77" y="1548.69" class="st3" width="165.7" height="18.9"/>
<text transform="matrix(1 0 0 1 354.5931 1564.1523)" class="st4 st5">blast_hits.txt</text>
<g>
	<g>
		<polyline class="st6" points="673.08,1453.15 635.53,1453.15 635.53,1558.61 487.91,1558.61 		"/>
		<g>
			<polygon class="st7" points="670.89,1445.67 683.84,1453.15 670.89,1460.62 			"/>
		</g>
	</g>
</g>
<g>
	<g>
		<line class="st6" x1="634.42" y1="1538.1" x2="673.08" y2="1538.1"/>
		<g>
			<polygon class="st7" points="670.89,1545.58 683.84,1538.1 670.89,1530.62 			"/>
		</g>
	</g>
</g>
<g>
	<g>
		<line class="st6" x1="837.6" y1="1453.15" x2="883.88" y2="1453.15"/>
		<g>
			<polygon class="st7" points="881.7,1460.62 894.65,1453.15 881.7,1445.67 			"/>
		</g>
	</g>
</g>
<rect x="914.82" y="1443.7" class="st3" width="175.59" height="18.9"/>
<text transform="matrix(1 0 0 1 914.8241 1459.1606)" class="st4 st5">chromoMap.html</text>
<g>
	<g>
		<line class="st6" x1="837.1" y1="1537.1" x2="883.38" y2="1537.1"/>
		<g>
			<polygon class="st7" points="881.2,1544.58 894.15,1537.1 881.2,1529.62 			"/>
		</g>
	</g>
</g>
<rect x="914.32" y="1527.65" class="st3" width="175.59" height="18.9"/>
<text transform="matrix(1 0 0 1 914.3241 1543.1154)" class="st4 st5">alitv.html</text>
<rect x="271.11" y="1392.44" class="st3" width="166.74" height="24.59"/>
<text transform="matrix(1 0 0 1 291.1613 1409.6268)" class="st13 st9 st10">Annotation</text>
</svg>
